<mxfile host="app.diagrams.net" modified="2023-03-09T08:45:50.736Z" agent="5.0 (X11; Linux x86_64) AppleWebKit/537.36 (KHTML, like Gecko) Chrome/103.0.5060.114 Safari/537.36 Edg/103.0.1264.62" etag="PkSGDylVOqU_pK6-6F-H" version="20.8.14" type="github">
  <diagram id="C5RBs43oDa-KdzZeNtuy" name="Page-1">
    <mxGraphModel dx="939" dy="534" grid="1" gridSize="10" guides="1" tooltips="1" connect="1" arrows="1" fold="1" page="1" pageScale="1" pageWidth="827" pageHeight="1169" math="0" shadow="0">
      <root>
        <mxCell id="WIyWlLk6GJQsqaUBKTNV-0" />
        <mxCell id="WIyWlLk6GJQsqaUBKTNV-1" parent="WIyWlLk6GJQsqaUBKTNV-0" />
        <mxCell id="Lqe4J3SraO-Tc6IZ4Yrn-33" style="edgeStyle=orthogonalEdgeStyle;rounded=0;orthogonalLoop=1;jettySize=auto;html=1;exitX=0.5;exitY=1;exitDx=0;exitDy=0;entryX=0.5;entryY=0;entryDx=0;entryDy=0;" edge="1" parent="WIyWlLk6GJQsqaUBKTNV-1" source="WIyWlLk6GJQsqaUBKTNV-3" target="Lqe4J3SraO-Tc6IZ4Yrn-0">
          <mxGeometry relative="1" as="geometry" />
        </mxCell>
        <mxCell id="WIyWlLk6GJQsqaUBKTNV-3" value="两份性能差异较大的 device 代码 &lt;br&gt;-gline-directives-only 编译" style="rounded=1;whiteSpace=wrap;html=1;fontSize=12;glass=0;strokeWidth=1;shadow=0;" parent="WIyWlLk6GJQsqaUBKTNV-1" vertex="1">
          <mxGeometry x="373" y="54" width="187" height="56" as="geometry" />
        </mxCell>
        <mxCell id="WIyWlLk6GJQsqaUBKTNV-11" value="结束" style="rounded=1;whiteSpace=wrap;html=1;fontSize=12;glass=0;strokeWidth=1;shadow=0;" parent="WIyWlLk6GJQsqaUBKTNV-1" vertex="1">
          <mxGeometry x="421.49" y="540" width="90" height="40" as="geometry" />
        </mxCell>
        <mxCell id="Lqe4J3SraO-Tc6IZ4Yrn-34" style="edgeStyle=orthogonalEdgeStyle;rounded=0;orthogonalLoop=1;jettySize=auto;html=1;exitX=0.5;exitY=1;exitDx=0;exitDy=0;entryX=0.5;entryY=0;entryDx=0;entryDy=0;" edge="1" parent="WIyWlLk6GJQsqaUBKTNV-1" source="Lqe4J3SraO-Tc6IZ4Yrn-0" target="Lqe4J3SraO-Tc6IZ4Yrn-2">
          <mxGeometry relative="1" as="geometry" />
        </mxCell>
        <mxCell id="Lqe4J3SraO-Tc6IZ4Yrn-0" value="确认异常 core、异常 pmu event&lt;br&gt;cnperf-cli record --pmu" style="rounded=1;whiteSpace=wrap;html=1;fontSize=12;glass=0;strokeWidth=1;shadow=0;" vertex="1" parent="WIyWlLk6GJQsqaUBKTNV-1">
          <mxGeometry x="373" y="140" width="187" height="50" as="geometry" />
        </mxCell>
        <mxCell id="Lqe4J3SraO-Tc6IZ4Yrn-38" style="edgeStyle=orthogonalEdgeStyle;rounded=0;orthogonalLoop=1;jettySize=auto;html=1;exitX=0.5;exitY=1;exitDx=0;exitDy=0;entryX=0.5;entryY=0;entryDx=0;entryDy=0;" edge="1" parent="WIyWlLk6GJQsqaUBKTNV-1" source="Lqe4J3SraO-Tc6IZ4Yrn-1" target="WIyWlLk6GJQsqaUBKTNV-11">
          <mxGeometry relative="1" as="geometry" />
        </mxCell>
        <mxCell id="Lqe4J3SraO-Tc6IZ4Yrn-1" value="比较异常源代码范围处二进制指令差异，具体分析" style="rounded=1;whiteSpace=wrap;html=1;fontSize=12;glass=0;strokeWidth=1;shadow=0;" vertex="1" parent="WIyWlLk6GJQsqaUBKTNV-1">
          <mxGeometry x="390.49" y="470" width="152" height="50" as="geometry" />
        </mxCell>
        <mxCell id="Lqe4J3SraO-Tc6IZ4Yrn-35" style="edgeStyle=orthogonalEdgeStyle;rounded=0;orthogonalLoop=1;jettySize=auto;html=1;exitX=0.5;exitY=1;exitDx=0;exitDy=0;entryX=0.5;entryY=0;entryDx=0;entryDy=0;" edge="1" parent="WIyWlLk6GJQsqaUBKTNV-1" source="Lqe4J3SraO-Tc6IZ4Yrn-2" target="Lqe4J3SraO-Tc6IZ4Yrn-3">
          <mxGeometry relative="1" as="geometry" />
        </mxCell>
        <mxCell id="Lqe4J3SraO-Tc6IZ4Yrn-40" style="edgeStyle=orthogonalEdgeStyle;rounded=0;orthogonalLoop=1;jettySize=auto;html=1;exitX=1;exitY=0.5;exitDx=0;exitDy=0;entryX=0;entryY=0.5;entryDx=0;entryDy=0;" edge="1" parent="WIyWlLk6GJQsqaUBKTNV-1" source="Lqe4J3SraO-Tc6IZ4Yrn-2" target="Lqe4J3SraO-Tc6IZ4Yrn-39">
          <mxGeometry relative="1" as="geometry" />
        </mxCell>
        <mxCell id="Lqe4J3SraO-Tc6IZ4Yrn-2" value="高精度采样：PC + 异常 pmu event&lt;br&gt;cnperf-cli record --highrate_sampling&lt;br&gt;开启 FATBIN_DUMP_ELF=1" style="rounded=1;whiteSpace=wrap;html=1;fontSize=12;glass=0;strokeWidth=1;shadow=0;" vertex="1" parent="WIyWlLk6GJQsqaUBKTNV-1">
          <mxGeometry x="355.49" y="220" width="222" height="60" as="geometry" />
        </mxCell>
        <mxCell id="Lqe4J3SraO-Tc6IZ4Yrn-36" style="edgeStyle=orthogonalEdgeStyle;rounded=0;orthogonalLoop=1;jettySize=auto;html=1;exitX=0.5;exitY=1;exitDx=0;exitDy=0;entryX=0.5;entryY=0;entryDx=0;entryDy=0;" edge="1" parent="WIyWlLk6GJQsqaUBKTNV-1" source="Lqe4J3SraO-Tc6IZ4Yrn-3" target="Lqe4J3SraO-Tc6IZ4Yrn-31">
          <mxGeometry relative="1" as="geometry" />
        </mxCell>
        <mxCell id="Lqe4J3SraO-Tc6IZ4Yrn-3" value="定位到异常 PC" style="rounded=1;whiteSpace=wrap;html=1;fontSize=12;glass=0;strokeWidth=1;shadow=0;" vertex="1" parent="WIyWlLk6GJQsqaUBKTNV-1">
          <mxGeometry x="397.99" y="315" width="137" height="40" as="geometry" />
        </mxCell>
        <mxCell id="Lqe4J3SraO-Tc6IZ4Yrn-37" style="edgeStyle=orthogonalEdgeStyle;rounded=0;orthogonalLoop=1;jettySize=auto;html=1;exitX=0.5;exitY=1;exitDx=0;exitDy=0;entryX=0.5;entryY=0;entryDx=0;entryDy=0;" edge="1" parent="WIyWlLk6GJQsqaUBKTNV-1" source="Lqe4J3SraO-Tc6IZ4Yrn-31" target="Lqe4J3SraO-Tc6IZ4Yrn-1">
          <mxGeometry relative="1" as="geometry" />
        </mxCell>
        <mxCell id="Lqe4J3SraO-Tc6IZ4Yrn-31" value="定位到异常源代码&lt;br&gt;llvm-objdump --line-numbers" style="rounded=1;whiteSpace=wrap;html=1;fontSize=12;glass=0;strokeWidth=1;shadow=0;" vertex="1" parent="WIyWlLk6GJQsqaUBKTNV-1">
          <mxGeometry x="383.36" y="397" width="166.25" height="50" as="geometry" />
        </mxCell>
        <mxCell id="Lqe4J3SraO-Tc6IZ4Yrn-32" value="" style="rounded=0;whiteSpace=wrap;html=1;fillColor=none;dashed=1;strokeColor=#FF0000;" vertex="1" parent="WIyWlLk6GJQsqaUBKTNV-1">
          <mxGeometry x="330" y="40" width="440" height="340" as="geometry" />
        </mxCell>
        <mxCell id="Lqe4J3SraO-Tc6IZ4Yrn-41" style="edgeStyle=orthogonalEdgeStyle;rounded=0;orthogonalLoop=1;jettySize=auto;html=1;exitX=0.5;exitY=1;exitDx=0;exitDy=0;" edge="1" parent="WIyWlLk6GJQsqaUBKTNV-1" source="Lqe4J3SraO-Tc6IZ4Yrn-39">
          <mxGeometry relative="1" as="geometry">
            <mxPoint x="470" y="370" as="targetPoint" />
            <Array as="points">
              <mxPoint x="689" y="360" />
              <mxPoint x="689" y="360" />
            </Array>
          </mxGeometry>
        </mxCell>
        <mxCell id="Lqe4J3SraO-Tc6IZ4Yrn-39" value="异常 kernel elf&lt;br&gt;（性能差）" style="rounded=1;whiteSpace=wrap;html=1;fontSize=12;glass=0;strokeWidth=1;shadow=0;" vertex="1" parent="WIyWlLk6GJQsqaUBKTNV-1">
          <mxGeometry x="620" y="230" width="137" height="40" as="geometry" />
        </mxCell>
        <mxCell id="Lqe4J3SraO-Tc6IZ4Yrn-42" value="&lt;font style=&quot;font-size: 14px;&quot; color=&quot;#ff0000&quot;&gt;X2&lt;/font&gt;" style="text;strokeColor=none;align=center;fillColor=none;html=1;verticalAlign=middle;whiteSpace=wrap;rounded=0;" vertex="1" parent="WIyWlLk6GJQsqaUBKTNV-1">
          <mxGeometry x="730" y="355" width="30" height="20" as="geometry" />
        </mxCell>
        <mxCell id="Lqe4J3SraO-Tc6IZ4Yrn-43" value="&lt;font color=&quot;#000000&quot;&gt;注：虚线框中流程需要分别对性能好的版本、性能差的版本都做一遍&lt;/font&gt;" style="text;strokeColor=none;align=center;fillColor=none;html=1;verticalAlign=middle;whiteSpace=wrap;rounded=0;fontSize=14;fontColor=#FF0000;" vertex="1" parent="WIyWlLk6GJQsqaUBKTNV-1">
          <mxGeometry x="319" y="585" width="462.01" height="40" as="geometry" />
        </mxCell>
      </root>
    </mxGraphModel>
  </diagram>
</mxfile>
